<svg width="905" height="723" viewBox="0 0 905 723" fill="none" xmlns="http://www.w3.org/2000/svg">
<g clip-path="url(#clip0_568_5)">
<rect width="905" height="723" fill="white"/>
<rect width="181.203" height="181.175" fill="#2F80ED"/>
<rect y="181" width="181.203" height="181.175" fill="#6FCF97"/>
<rect y="362" width="181.203" height="181.175" fill="#F2994A"/>
<rect y="542" width="181.203" height="181.175" fill="#F5FA11"/>
<rect x="181.203" width="181.203" height="181.175" fill="#56CCF2"/>
<rect x="181.203" y="181" width="181.203" height="181.175" fill="#B8860B"/>
<rect x="181.203" y="362" width="181.203" height="181.175" fill="#EB5757"/>
<rect x="181.203" y="542" width="181.203" height="181.175" fill="#5C0E8C"/>
<rect x="362.406" width="181.203" height="181.175" fill="#2D9CDB"/>
<rect x="362.406" y="181" width="181.203" height="181.175" fill="#219653"/>
<rect x="362.406" y="362" width="181.203" height="181.175" fill="#800080"/>
<rect x="362.406" y="542" width="181.203" height="181.175" fill="#DB2D80"/>
<rect x="543.609" width="181.203" height="181.175" fill="#9B51E0"/>
<rect x="543.609" y="181" width="181.203" height="181.175" fill="#F2C94C"/>
<rect x="543.609" y="362" width="181.203" height="181.175" fill="#828282"/>
<rect x="543.609" y="542" width="181.203" height="181.175" fill="#3EA3CE"/>
<rect x="724" width="181.203" height="181.175" fill="#FF69B4"/>
<rect x="724" y="181" width="181.203" height="181.175" fill="#27AE60"/>
<rect x="724" y="362" width="181.203" height="181.175" fill="#BC8F8F"/>
<rect x="724" y="542" width="181.203" height="181.175" fill="#F0E68C"/>
</g>
<defs>
<clipPath id="clip0_568_5">
<rect width="905" height="723" fill="white"/>
</clipPath>
</defs>
</svg>
