<svg width="906" height="723" viewBox="0 0 906 723" fill="none" xmlns="http://www.w3.org/2000/svg">
<g clip-path="url(#clip0_568_5)">
<rect width="906" height="723" fill="white"/>
<rect width="181.203" height="181.175" fill="#2F80ED"/>
<rect x="181.203" width="181.203" height="181.175" fill="#56CCF2"/>
<rect x="362.406" width="181.203" height="181.175" fill="#2D9CDB"/>
<rect x="543.609" width="181.203" height="181.175" fill="#9B51E0"/>
<rect x="725" width="181.203" height="181.175" fill="#FF69B4"/>
<rect y="181.175" width="181.203" height="181.175" fill="#6FCF97"/>
<rect x="362.406" y="181.175" width="181.203" height="181.175" fill="#219653"/>
<rect x="543.609" y="181.175" width="181.203" height="181.175" fill="#F2C94C"/>
<rect x="181" y="181.175" width="181.203" height="181.175" fill="#B8860B"/>
<rect y="361.467" width="181.203" height="181.175" fill="#F2994A"/>
<rect x="181.203" y="361.467" width="181.203" height="181.175" fill="#EB5757"/>
<rect x="362.406" y="361.467" width="181.203" height="181.175" fill="#800080"/>
<rect x="543.609" y="361.467" width="181.203" height="181.175" fill="#828282"/>
<rect x="725" y="361.467" width="181.203" height="181.175" fill="#BC8F8F"/>
<rect y="541.825" width="181.203" height="181.175" fill="#F5FA11"/>
<rect x="181.203" y="541.825" width="181.203" height="181.175" fill="#5C0E8C"/>
<rect x="362.406" y="541.825" width="181.203" height="181.175" fill="#DB2D81"/>
<rect x="543.609" y="541.825" width="181.203" height="181.175" fill="#3EA3CF"/>
<rect x="725" y="541.825" width="181.203" height="181.175" fill="#F0E68C"/>
<rect x="725" y="180" width="181.203" height="181.203" fill="#27AE60"/>
</g>
<defs>
<clipPath id="clip0_568_5">
<rect width="906" height="723" fill="white"/>
</clipPath>
</defs>
</svg>
